<?xml version="1.0" encoding="UTF-8"?>
<svg width="20px" height="18px" viewBox="0 0 20 18" version="1.1" xmlns="http://www.w3.org/2000/svg" xmlns:xlink="http://www.w3.org/1999/xlink">
    <!-- Generator: Sketch 55.1 (78136) - https://sketchapp.com -->
    <title>heart2</title>
    <desc>Created with Sketch.</desc>
    <g id="Page-1" stroke="none" stroke-width="1" fill="none" fill-rule="evenodd">
        <g id="heart" transform="translate(-40.000000, 0.000000)" fill="#FFFFFF" fill-rule="nonzero">
            <path d="M54.0428571,0.28125 C52.5317629,0.269441277 51.0795701,0.857463501 50.0142857,1.9125 C47.7855003,-0.26844522 44.1859283,-0.26844522 41.9571429,1.9125 C40.8841312,2.96757145 40.2812191,4.39926048 40.2812191,5.8921875 C40.2812191,7.38511452 40.8841312,8.81680355 41.9571429,9.871875 L50.0142857,17.83125 L58.1,9.871875 C60.3155634,7.67791432 60.3155634,4.13458568 58.1,1.940625 C57.0340778,0.86603024 55.5685284,0.266619237 54.0428571,0.28125 L54.0428571,0.28125 Z M56.8714286,8.690625 L50.0142857,15.440625 L43.1571429,8.690625 C42.4046031,7.95373087 41.9827913,6.95112396 41.9857143,5.90625 C41.9696,4.85885392 42.3934629,3.85137201 43.1571429,3.121875 C43.9057337,2.38109371 44.924255,1.96587267 45.9857143,1.96875 C47.0497357,1.95288754 48.0732094,2.37012752 48.8142857,3.121875 L50.0142857,4.33125 L51.2142857,3.15 C51.9628766,2.40921871 52.9813979,1.99399767 54.0428571,1.996875 C55.1068786,1.98101254 56.1303522,2.39825252 56.8714286,3.15 C57.6239683,3.88689413 58.0457801,4.88950104 58.0428571,5.934375 C58.053119,6.97242904 57.6295603,7.96901877 56.8714286,8.690625 L56.8714286,8.690625 Z" id="heart2"></path>
        </g>
    </g>
</svg>
