<?xml version="1.0" encoding="UTF-8"?>
<svg width="21px" height="34px" viewBox="0 0 21 34" version="1.1" xmlns="http://www.w3.org/2000/svg" xmlns:xlink="http://www.w3.org/1999/xlink">
    <!-- Generator: Sketch 55.2 (78181) - https://sketchapp.com -->
    <title>Shape</title>
    <desc>Created with Sketch.</desc>
    <g id="Page-1" stroke="none" stroke-width="1" fill="none" fill-rule="evenodd">
        <g id="odnoklassniki-brands" fill="#FFFFFF" fill-rule="nonzero">
            <path d="M17.5282505,21.6901368 C15.74888,22.820102 13.3006221,23.2681917 11.6836029,23.437037 L13.0408599,24.7748119 L17.9958223,29.7297743 C19.8076631,31.5870735 16.8593631,34.4899151 15.0280401,32.6975565 C13.787676,31.4377102 11.9693412,29.6193754 10.0730777,27.723112 L5.11811536,32.6910625 C3.28679243,34.476927 0.338492402,31.5481091 2.16981533,29.7232803 C3.4296616,28.463434 5.22851426,26.6450992 7.12477771,24.7683179 L8.46255262,23.430543 C6.8650156,23.2616976 4.37779332,22.8395842 2.57894066,21.6836427 C0.461879408,20.3198916 -0.466770161,19.5211231 0.351480508,17.8521515 C0.832040425,16.9040198 2.15033317,16.1052513 3.89723341,17.4819905 C3.89723341,17.4819905 6.25457462,19.3587718 10.0600896,19.3587718 C13.8656047,19.3587718 16.2229459,17.4819905 16.2229459,17.4819905 C17.9698461,16.1117453 19.2816448,16.9040198 19.7686988,17.8521515 C20.5739613,19.5211231 19.6453118,20.3198916 17.5282505,21.6901368 Z M1.63080894,8.42278665 C1.63080894,3.7665507 5.41684179,0 10.0535956,0 C14.6903494,0 18.4763822,3.7665507 18.4763822,8.42278665 C18.4763822,13.0595404 14.6903494,16.8260911 10.0535956,16.8260911 C5.41684179,16.8260911 1.63080894,13.0595404 1.63080894,8.42278665 Z M5.91688387,8.42278665 C5.91688387,10.7021992 7.77418301,12.5594984 10.0535956,12.5594984 C12.3330082,12.5594984 14.1903073,10.7021992 14.1903073,8.42278665 C14.1903073,6.12389191 12.3330082,4.26659278 10.0535956,4.26659278 C7.77418301,4.26659278 5.91688387,6.12389191 5.91688387,8.42278665 Z" id="Shape"></path>
        </g>
    </g>
</svg>